<?xml version="1.0" encoding="UTF-8" standalone="no"?>
<!DOCTYPE svg PUBLIC "-//W3C//DTD SVG 1.1//EN"
 "http://www.w3.org/Graphics/SVG/1.1/DTD/svg11.dtd">
<!-- Generated by graphviz version 8.0.5 (20230430.1635)
 -->
<!-- Pages: 1 -->
<svg width="692pt" height="388pt"
 viewBox="0.00 0.00 692.00 388.00" xmlns="http://www.w3.org/2000/svg" xmlns:xlink="http://www.w3.org/1999/xlink">
<g id="graph0" class="graph" transform="scale(1 1) rotate(0) translate(4 384)">
<polygon fill="white" stroke="none" points="-4,4 -4,-384 688,-384 688,4 -4,4"/>
<g id="clust1" class="cluster">
<title>outer_cluster_Value.__init___3377577844511369682_0</title>
</g>
<g id="clust2" class="cluster">
<title>cluster_Value.__init___3377577844511369682_0</title>
<path fill="#8dd3c7" stroke="black" stroke-dasharray="1,5" d="M100,-11C100,-11 136,-11 136,-11 142,-11 148,-17 148,-23 148,-23 148,-41 148,-41 148,-47 142,-53 136,-53 136,-53 100,-53 100,-53 94,-53 88,-47 88,-41 88,-41 88,-23 88,-23 88,-17 94,-11 100,-11"/>
</g>
<g id="clust7" class="cluster">
<title>outer_cluster_Value.__init___4208978898528913939_0</title>
</g>
<g id="clust8" class="cluster">
<title>cluster_Value.__init___4208978898528913939_0</title>
<path fill="#8dd3c7" stroke="black" stroke-dasharray="1,5" d="M403,-169C403,-169 439,-169 439,-169 445,-169 451,-175 451,-181 451,-181 451,-199 451,-199 451,-205 445,-211 439,-211 439,-211 403,-211 403,-211 397,-211 391,-205 391,-199 391,-199 391,-181 391,-181 391,-175 397,-169 403,-169"/>
</g>
<g id="clust13" class="cluster">
<title>outer_cluster_Values.__init___11743562013128004906_0</title>
</g>
<g id="clust14" class="cluster">
<title>cluster_Values.__init___11743562013128004906_0</title>
<path fill="#bebada" stroke="black" stroke-dasharray="1,5" d="M551,-327C551,-327 609,-327 609,-327 615,-327 621,-333 621,-339 621,-339 621,-357 621,-357 621,-363 615,-369 609,-369 609,-369 551,-369 551,-369 545,-369 539,-363 539,-357 539,-357 539,-339 539,-339 539,-333 545,-327 551,-327"/>
</g>
<g id="clust4" class="cluster">
<title>outer_cluster_Value.__init___0_0</title>
</g>
<g id="clust5" class="cluster">
<title>cluster_Value.__init___0_0</title>
<path fill="#8dd3c7" stroke="black" stroke-dasharray="1,5" d="M490,-90C490,-90 526,-90 526,-90 532,-90 538,-96 538,-102 538,-102 538,-120 538,-120 538,-126 532,-132 526,-132 526,-132 490,-132 490,-132 484,-132 478,-126 478,-120 478,-120 478,-102 478,-102 478,-96 484,-90 490,-90"/>
</g>
<g id="clust10" class="cluster">
<title>outer_cluster_Values.__init___0_0</title>
</g>
<g id="clust11" class="cluster">
<title>cluster_Values.__init___0_0</title>
<path fill="#bebada" stroke="black" stroke-dasharray="1,5" d="M50,-169C50,-169 108,-169 108,-169 114,-169 120,-175 120,-181 120,-181 120,-199 120,-199 120,-205 114,-211 108,-211 108,-211 50,-211 50,-211 44,-211 38,-205 38,-199 38,-199 38,-181 38,-181 38,-175 44,-169 50,-169"/>
</g>
<g id="clust16" class="cluster">
<title>outer_cluster_2</title>
</g>
<g id="clust17" class="cluster">
<title>cluster_2</title>
<path fill="#ffffb3" stroke="black" stroke-dasharray="5,2" d="M23,-248C23,-248 213,-248 213,-248 219,-248 225,-254 225,-260 225,-260 225,-278 225,-278 225,-284 219,-290 213,-290 213,-290 23,-290 23,-290 17,-290 11,-284 11,-278 11,-278 11,-260 11,-260 11,-254 17,-248 23,-248"/>
</g>
<g id="clust19" class="cluster">
<title>outer_cluster_5</title>
</g>
<g id="clust20" class="cluster">
<title>cluster_5</title>
<path fill="#ffffb3" stroke="black" stroke-dasharray="5,2" d="M577,-169C577,-169 661,-169 661,-169 667,-169 673,-175 673,-181 673,-181 673,-199 673,-199 673,-205 667,-211 661,-211 661,-211 577,-211 577,-211 571,-211 565,-205 565,-199 565,-199 565,-181 565,-181 565,-175 571,-169 577,-169"/>
</g>
<g id="clust22" class="cluster">
<title>outer_cluster_1</title>
</g>
<g id="clust23" class="cluster">
<title>cluster_1</title>
<path fill="#fb8072" stroke="black" stroke-dasharray="5,2" d="M153,-169C153,-169 247,-169 247,-169 253,-169 259,-175 259,-181 259,-181 259,-199 259,-199 259,-205 253,-211 247,-211 247,-211 153,-211 153,-211 147,-211 141,-205 141,-199 141,-199 141,-181 141,-181 141,-175 147,-169 153,-169"/>
</g>
<g id="clust25" class="cluster">
<title>outer_cluster_0</title>
</g>
<g id="clust26" class="cluster">
<title>cluster_0</title>
<path fill="#80b1d3" stroke="black" stroke-dasharray="5,2" d="M79,-90C79,-90 157,-90 157,-90 163,-90 169,-96 169,-102 169,-102 169,-120 169,-120 169,-126 163,-132 157,-132 157,-132 79,-132 79,-132 73,-132 67,-126 67,-120 67,-120 67,-102 67,-102 67,-96 73,-90 79,-90"/>
</g>
<g id="clust28" class="cluster">
<title>outer_cluster_6</title>
</g>
<g id="clust29" class="cluster">
<title>cluster_6</title>
<path fill="#80b1d3" stroke="black" stroke-dasharray="5,2" d="M243,-248C243,-248 598,-248 598,-248 604,-248 610,-254 610,-260 610,-260 610,-278 610,-278 610,-284 604,-290 598,-290 598,-290 243,-290 243,-290 237,-290 231,-284 231,-278 231,-278 231,-260 231,-260 231,-254 237,-248 243,-248"/>
</g>
<g id="clust31" class="cluster">
<title>outer_cluster_7</title>
</g>
<g id="clust32" class="cluster">
<title>cluster_7</title>
<path fill="#80b1d3" stroke="black" stroke-dasharray="5,2" d="M469,-169C469,-169 547,-169 547,-169 553,-169 559,-175 559,-181 559,-181 559,-199 559,-199 559,-205 553,-211 547,-211 547,-211 469,-211 469,-211 463,-211 457,-205 457,-199 457,-199 457,-181 457,-181 457,-175 463,-169 469,-169"/>
</g>
<!-- Values.__init___0_0&#45;&gt;Value.__init___3377577844511369682 -->
<g id="edge8" class="edge">
<title>Values.__init___0_0:s&#45;&gt;Value.__init___3377577844511369682</title>
<path fill="none" stroke="black" d="M79,-174C79,-158.98 87.3,-144.62 96.25,-133.51"/>
<polygon fill="black" stroke="black" points="94.33,-136.52 97.1,-132 92.12,-133.8 94.33,-136.52"/>
</g>
<!-- Values.__init___11743562013128004906_0&#45;&gt;Values.__getitem___520482313101349337 -->
<g id="edge10" class="edge">
<title>Values.__init___11743562013128004906_0:s&#45;&gt;Values.__getitem___520482313101349337</title>
<path fill="none" stroke="black" d="M580,-332C580,-316.98 571.79,-302.52 563,-291.36"/>
<polygon fill="black" stroke="black" points="567.26,-291.64 562.22,-290 565.14,-294.42 567.26,-291.64"/>
</g>
<!-- NDArray.shape_5871781006564002453&#45;&gt;arange_0 -->
<g id="edge6" class="edge">
<title>NDArray.shape_5871781006564002453:s&#45;&gt;arange_0</title>
<path fill="none" stroke="black" d="M171,-253C171,-239.98 171,-225.43 171,-213.7"/>
<polygon fill="black" stroke="black" points="172.75,-217 171,-212 169.25,-217 172.75,-217"/>
</g>
<!-- Values.__init___0&#45;&gt;Values.__init___0_0 -->
<g id="edge9" class="edge">
<title>Values.__init___0:s&#45;&gt;Values.__init___0_0</title>
<path fill="none" stroke="black" d="M65,-253C65,-239.63 68.14,-225.03 71.44,-213.35"/>
<polygon fill="black" stroke="black" points="71.66,-217.11 73.06,-212 68.78,-215.12 71.66,-217.11"/>
</g>
<!-- Values.__init___11743562013128004906&#45;&gt;Values.__init___11743562013128004906_0 -->
<g id="edge11" class="edge">
<title>Values.__init___11743562013128004906:s&#45;&gt;Values.__init___11743562013128004906_0</title>
<path fill="none" stroke="black" d="M619,-174C619,-151.27 654.21,-158.77 670.12,-175 680.39,-185.47 674.29,-193.94 670.12,-208 656.32,-254.67 621.39,-300.37 599.29,-326"/>
<polygon fill="black" stroke="black" points="602.01,-322.95 598.59,-327 603.79,-325.96 602.01,-322.95"/>
</g>
<!-- arange_0&#45;&gt;Value.__init___3377577844511369682 -->
<g id="edge7" class="edge">
<title>arange_0:s&#45;&gt;Value.__init___3377577844511369682</title>
<path fill="none" stroke="black" d="M171,-174C171,-157.6 160.16,-143.36 148.28,-132.67"/>
<polygon fill="black" stroke="black" points="153.15,-132.57 147.88,-132 151.64,-135.73 153.15,-132.57"/>
</g>
<!-- Value.__init___3377577844511369682&#45;&gt;Value.__init___3377577844511369682_0 -->
<g id="edge1" class="edge">
<title>Value.__init___3377577844511369682:s&#45;&gt;Value.__init___3377577844511369682_0</title>
<path fill="none" stroke="black" d="M118,-95C118,-81.98 118,-67.43 118,-55.7"/>
<polygon fill="black" stroke="black" points="119.75,-59 118,-54 116.25,-59 119.75,-59"/>
</g>
<!-- Value.__init___4208978898528913939&#45;&gt;Value.__init___4208978898528913939_0 -->
<g id="edge3" class="edge">
<title>Value.__init___4208978898528913939:s&#45;&gt;Value.__init___4208978898528913939_0</title>
<path fill="none" stroke="black" d="M425,-253C425,-239.96 424.11,-225.4 423.17,-213.67"/>
<polygon fill="black" stroke="black" points="425.3,-216.6 422.67,-212 421.86,-217.23 425.3,-216.6"/>
</g>
<!-- NDArray.__getitem___11868447927124751835&#45;&gt;Values.__init___11743562013128004906 -->
<g id="edge5" class="edge">
<title>NDArray.__getitem___11868447927124751835:s&#45;&gt;Values.__init___11743562013128004906</title>
<path fill="none" stroke="black" d="M338,-253C338,-202.91 511.72,-227.35 560,-214 561.42,-213.61 562.86,-213.19 564.3,-212.76"/>
<polygon fill="black" stroke="black" points="564.66,-214.17 568.9,-211 563.61,-210.83 564.66,-214.17"/>
</g>
<!-- NDArray.__getitem___11868447927124751835&#45;&gt;ten_0 -->
<g id="edge4" class="edge">
<title>NDArray.__getitem___11868447927124751835:s&#45;&gt;ten_0</title>
<path fill="none" stroke="black" d="M269,-253C269,-237.73 260.33,-223.24 251.06,-212.12"/>
<polygon fill="black" stroke="black" points="255.5,-212.28 250.36,-211 253.58,-215.21 255.5,-212.28"/>
</g>
<!-- Values.__getitem___520482313101349337&#45;&gt;Values.__init___11743562013128004906 -->
<g id="edge12" class="edge">
<title>Values.__getitem___520482313101349337:s&#45;&gt;Values.__init___11743562013128004906</title>
<path fill="none" stroke="black" d="M510,-253C510,-245.47 541.83,-227.97 571.09,-213.48"/>
<polygon fill="black" stroke="black" points="571.42,-214.78 575.14,-211 569.88,-211.63 571.42,-214.78"/>
</g>
<!-- Values.__getitem___520482313101349337&#45;&gt;Value.__init___0 -->
<g id="edge13" class="edge">
<title>Values.__getitem___520482313101349337:s&#45;&gt;Value.__init___0</title>
<path fill="none" stroke="black" d="M574,-253C574,-235.49 561.5,-221.47 547.38,-211.23"/>
<polygon fill="black" stroke="black" points="552.83,-210.65 547.55,-211 551.89,-214.03 552.83,-210.65"/>
</g>
<!-- Value.__init___0&#45;&gt;Value.__init___0_0 -->
<g id="edge2" class="edge">
<title>Value.__init___0:s&#45;&gt;Value.__init___0_0</title>
<path fill="none" stroke="black" d="M508,-174C508,-160.98 508,-146.43 508,-134.7"/>
<polygon fill="black" stroke="black" points="509.75,-138 508,-133 506.25,-138 509.75,-138"/>
</g>
<!-- Value.__init___3377577844511369682_0 -->
<g id="node1" class="node">
<title>Value.__init___3377577844511369682_0</title>
<path fill="white" stroke="none" d="M112.67,-16C112.67,-16 123.33,-16 123.33,-16 128.67,-16 134,-21.33 134,-26.67 134,-26.67 134,-37.33 134,-37.33 134,-42.67 128.67,-48 123.33,-48 123.33,-48 112.67,-48 112.67,-48 107.33,-48 102,-42.67 102,-37.33 102,-37.33 102,-26.67 102,-26.67 102,-21.33 107.33,-16 112.67,-16"/>
<text text-anchor="start" x="110.5" y="-26.2" font-family="Helvetica,sans-Serif" font-size="14.00">10</text>
<path fill="none" stroke="black" d="M112.67,-16C112.67,-16 123.33,-16 123.33,-16 128.67,-16 134,-21.33 134,-26.67 134,-26.67 134,-37.33 134,-37.33 134,-42.67 128.67,-48 123.33,-48 123.33,-48 112.67,-48 112.67,-48 107.33,-48 102,-42.67 102,-37.33 102,-37.33 102,-26.67 102,-26.67 102,-21.33 107.33,-16 112.67,-16"/>
</g>
<!-- Value.__init___0_0 -->
<g id="node2" class="node">
<title>Value.__init___0_0</title>
<path fill="white" stroke="none" d="M502.67,-95C502.67,-95 513.33,-95 513.33,-95 518.67,-95 524,-100.33 524,-105.67 524,-105.67 524,-116.33 524,-116.33 524,-121.67 518.67,-127 513.33,-127 513.33,-127 502.67,-127 502.67,-127 497.33,-127 492,-121.67 492,-116.33 492,-116.33 492,-105.67 492,-105.67 492,-100.33 497.33,-95 502.67,-95"/>
<text text-anchor="start" x="504.25" y="-105.2" font-family="Helvetica,sans-Serif" font-size="14.00">0</text>
<path fill="none" stroke="black" d="M502.67,-95C502.67,-95 513.33,-95 513.33,-95 518.67,-95 524,-100.33 524,-105.67 524,-105.67 524,-116.33 524,-116.33 524,-121.67 518.67,-127 513.33,-127 513.33,-127 502.67,-127 502.67,-127 497.33,-127 492,-121.67 492,-116.33 492,-116.33 492,-105.67 492,-105.67 492,-100.33 497.33,-95 502.67,-95"/>
</g>
<!-- Value.__init___4208978898528913939_0 -->
<g id="node3" class="node">
<title>Value.__init___4208978898528913939_0</title>
<path fill="white" stroke="none" d="M415.67,-174C415.67,-174 426.33,-174 426.33,-174 431.67,-174 437,-179.33 437,-184.67 437,-184.67 437,-195.33 437,-195.33 437,-200.67 431.67,-206 426.33,-206 426.33,-206 415.67,-206 415.67,-206 410.33,-206 405,-200.67 405,-195.33 405,-195.33 405,-184.67 405,-184.67 405,-179.33 410.33,-174 415.67,-174"/>
<text text-anchor="start" x="417.25" y="-184.2" font-family="Helvetica,sans-Serif" font-size="14.00">7</text>
<path fill="none" stroke="black" d="M415.67,-174C415.67,-174 426.33,-174 426.33,-174 431.67,-174 437,-179.33 437,-184.67 437,-184.67 437,-195.33 437,-195.33 437,-200.67 431.67,-206 426.33,-206 426.33,-206 415.67,-206 415.67,-206 410.33,-206 405,-200.67 405,-195.33 405,-195.33 405,-184.67 405,-184.67 405,-179.33 410.33,-174 415.67,-174"/>
</g>
<!-- Values.__init___0_0 -->
<g id="node4" class="node">
<title>Values.__init___0_0</title>
<path fill="white" stroke="none" d="M52.04,-174C52.04,-174 105.96,-174 105.96,-174 111.29,-174 116.62,-179.33 116.62,-184.67 116.62,-184.67 116.62,-195.33 116.62,-195.33 116.62,-200.67 111.29,-206 105.96,-206 105.96,-206 52.04,-206 52.04,-206 46.71,-206 41.38,-200.67 41.38,-195.33 41.38,-195.33 41.38,-184.67 41.38,-184.67 41.38,-179.33 46.71,-174 52.04,-174"/>
<text text-anchor="start" x="46.38" y="-184.2" font-family="Helvetica,sans-Serif" font-size="14.00">Vec[Value]</text>
<path fill="none" stroke="black" d="M52.04,-174C52.04,-174 105.96,-174 105.96,-174 111.29,-174 116.62,-179.33 116.62,-184.67 116.62,-184.67 116.62,-195.33 116.62,-195.33 116.62,-200.67 111.29,-206 105.96,-206 105.96,-206 52.04,-206 52.04,-206 46.71,-206 41.38,-200.67 41.38,-195.33 41.38,-195.33 41.38,-184.67 41.38,-184.67 41.38,-179.33 46.71,-174 52.04,-174"/>
</g>
<!-- Values.__init___11743562013128004906_0 -->
<g id="node5" class="node">
<title>Values.__init___11743562013128004906_0</title>
<path fill="white" stroke="none" d="M553.04,-332C553.04,-332 606.96,-332 606.96,-332 612.29,-332 617.62,-337.33 617.62,-342.67 617.62,-342.67 617.62,-353.33 617.62,-353.33 617.62,-358.67 612.29,-364 606.96,-364 606.96,-364 553.04,-364 553.04,-364 547.71,-364 542.38,-358.67 542.38,-353.33 542.38,-353.33 542.38,-342.67 542.38,-342.67 542.38,-337.33 547.71,-332 553.04,-332"/>
<text text-anchor="start" x="547.38" y="-342.2" font-family="Helvetica,sans-Serif" font-size="14.00">Vec[Value]</text>
<path fill="none" stroke="black" d="M553.04,-332C553.04,-332 606.96,-332 606.96,-332 612.29,-332 617.62,-337.33 617.62,-342.67 617.62,-342.67 617.62,-353.33 617.62,-353.33 617.62,-358.67 612.29,-364 606.96,-364 606.96,-364 553.04,-364 553.04,-364 547.71,-364 542.38,-358.67 542.38,-353.33 542.38,-353.33 542.38,-342.67 542.38,-342.67 542.38,-337.33 547.71,-332 553.04,-332"/>
</g>
<!-- NDArray.shape_5871781006564002453 -->
<g id="node6" class="node">
<title>NDArray.shape_5871781006564002453</title>
<path fill="white" stroke="none" d="M130.92,-253C130.92,-253 211.08,-253 211.08,-253 216.42,-253 221.75,-258.33 221.75,-263.67 221.75,-263.67 221.75,-274.33 221.75,-274.33 221.75,-279.67 216.42,-285 211.08,-285 211.08,-285 130.92,-285 130.92,-285 125.58,-285 120.25,-279.67 120.25,-274.33 120.25,-274.33 120.25,-263.67 120.25,-263.67 120.25,-258.33 125.58,-253 130.92,-253"/>
<text text-anchor="start" x="125.25" y="-263.2" font-family="Helvetica,sans-Serif" font-size="14.00">NDArray.shape</text>
<path fill="none" stroke="black" d="M130.92,-253C130.92,-253 211.08,-253 211.08,-253 216.42,-253 221.75,-258.33 221.75,-263.67 221.75,-263.67 221.75,-274.33 221.75,-274.33 221.75,-279.67 216.42,-285 211.08,-285 211.08,-285 130.92,-285 130.92,-285 125.58,-285 120.25,-279.67 120.25,-274.33 120.25,-274.33 120.25,-263.67 120.25,-263.67 120.25,-258.33 125.58,-253 130.92,-253"/>
</g>
<!-- Values.__init___0 -->
<g id="node7" class="node">
<title>Values.__init___0</title>
<path fill="white" stroke="none" d="M24.54,-253C24.54,-253 105.46,-253 105.46,-253 110.79,-253 116.12,-258.33 116.12,-263.67 116.12,-263.67 116.12,-274.33 116.12,-274.33 116.12,-279.67 110.79,-285 105.46,-285 105.46,-285 24.54,-285 24.54,-285 19.21,-285 13.88,-279.67 13.88,-274.33 13.88,-274.33 13.88,-263.67 13.88,-263.67 13.88,-258.33 19.21,-253 24.54,-253"/>
<text text-anchor="start" x="18.88" y="-263.2" font-family="Helvetica,sans-Serif" font-size="14.00">Values.__init__</text>
<path fill="none" stroke="black" d="M24.54,-253C24.54,-253 105.46,-253 105.46,-253 110.79,-253 116.12,-258.33 116.12,-263.67 116.12,-263.67 116.12,-274.33 116.12,-274.33 116.12,-279.67 110.79,-285 105.46,-285 105.46,-285 24.54,-285 24.54,-285 19.21,-285 13.88,-279.67 13.88,-274.33 13.88,-274.33 13.88,-263.67 13.88,-263.67 13.88,-258.33 19.21,-253 24.54,-253"/>
</g>
<!-- Values.__init___11743562013128004906 -->
<g id="node8" class="node">
<title>Values.__init___11743562013128004906</title>
<path fill="white" stroke="none" d="M578.54,-174C578.54,-174 659.46,-174 659.46,-174 664.79,-174 670.12,-179.33 670.12,-184.67 670.12,-184.67 670.12,-195.33 670.12,-195.33 670.12,-200.67 664.79,-206 659.46,-206 659.46,-206 578.54,-206 578.54,-206 573.21,-206 567.88,-200.67 567.88,-195.33 567.88,-195.33 567.88,-184.67 567.88,-184.67 567.88,-179.33 573.21,-174 578.54,-174"/>
<text text-anchor="start" x="572.88" y="-184.2" font-family="Helvetica,sans-Serif" font-size="14.00">Values.__init__</text>
<path fill="none" stroke="black" d="M578.54,-174C578.54,-174 659.46,-174 659.46,-174 664.79,-174 670.12,-179.33 670.12,-184.67 670.12,-184.67 670.12,-195.33 670.12,-195.33 670.12,-200.67 664.79,-206 659.46,-206 659.46,-206 578.54,-206 578.54,-206 573.21,-206 567.88,-200.67 567.88,-195.33 567.88,-195.33 567.88,-184.67 567.88,-184.67 567.88,-179.33 573.21,-174 578.54,-174"/>
</g>
<!-- arange_0 -->
<g id="node9" class="node">
<title>arange_0</title>
<path fill="white" stroke="none" d="M155.67,-174C155.67,-174 186.33,-174 186.33,-174 191.67,-174 197,-179.33 197,-184.67 197,-184.67 197,-195.33 197,-195.33 197,-200.67 191.67,-206 186.33,-206 186.33,-206 155.67,-206 155.67,-206 150.33,-206 145,-200.67 145,-195.33 145,-195.33 145,-184.67 145,-184.67 145,-179.33 150.33,-174 155.67,-174"/>
<text text-anchor="start" x="150" y="-184.2" font-family="Helvetica,sans-Serif" font-size="14.00">arange</text>
<path fill="none" stroke="black" d="M155.67,-174C155.67,-174 186.33,-174 186.33,-174 191.67,-174 197,-179.33 197,-184.67 197,-184.67 197,-195.33 197,-195.33 197,-200.67 191.67,-206 186.33,-206 186.33,-206 155.67,-206 155.67,-206 150.33,-206 145,-200.67 145,-195.33 145,-195.33 145,-184.67 145,-184.67 145,-179.33 150.33,-174 155.67,-174"/>
</g>
<!-- ten_0 -->
<g id="node10" class="node">
<title>ten_0</title>
<path fill="white" stroke="none" d="M223.67,-174C223.67,-174 234.33,-174 234.33,-174 239.67,-174 245,-179.33 245,-184.67 245,-184.67 245,-195.33 245,-195.33 245,-200.67 239.67,-206 234.33,-206 234.33,-206 223.67,-206 223.67,-206 218.33,-206 213,-200.67 213,-195.33 213,-195.33 213,-184.67 213,-184.67 213,-179.33 218.33,-174 223.67,-174"/>
<text text-anchor="start" x="219.62" y="-184.2" font-family="Helvetica,sans-Serif" font-size="14.00">ten</text>
<path fill="none" stroke="black" d="M223.67,-174C223.67,-174 234.33,-174 234.33,-174 239.67,-174 245,-179.33 245,-184.67 245,-184.67 245,-195.33 245,-195.33 245,-200.67 239.67,-206 234.33,-206 234.33,-206 223.67,-206 223.67,-206 218.33,-206 213,-200.67 213,-195.33 213,-195.33 213,-184.67 213,-184.67 213,-179.33 218.33,-174 223.67,-174"/>
</g>
<!-- Value.__init___3377577844511369682 -->
<g id="node11" class="node">
<title>Value.__init___3377577844511369682</title>
<path fill="white" stroke="none" d="M80.92,-95C80.92,-95 155.08,-95 155.08,-95 160.42,-95 165.75,-100.33 165.75,-105.67 165.75,-105.67 165.75,-116.33 165.75,-116.33 165.75,-121.67 160.42,-127 155.08,-127 155.08,-127 80.92,-127 80.92,-127 75.58,-127 70.25,-121.67 70.25,-116.33 70.25,-116.33 70.25,-105.67 70.25,-105.67 70.25,-100.33 75.58,-95 80.92,-95"/>
<text text-anchor="start" x="75.25" y="-105.2" font-family="Helvetica,sans-Serif" font-size="14.00">Value.__init__</text>
<path fill="none" stroke="black" d="M80.92,-95C80.92,-95 155.08,-95 155.08,-95 160.42,-95 165.75,-100.33 165.75,-105.67 165.75,-105.67 165.75,-116.33 165.75,-116.33 165.75,-121.67 160.42,-127 155.08,-127 155.08,-127 80.92,-127 80.92,-127 75.58,-127 70.25,-121.67 70.25,-116.33 70.25,-116.33 70.25,-105.67 70.25,-105.67 70.25,-100.33 75.58,-95 80.92,-95"/>
</g>
<!-- Value.__init___4208978898528913939 -->
<g id="node12" class="node">
<title>Value.__init___4208978898528913939</title>
<path fill="white" stroke="none" d="M387.92,-253C387.92,-253 462.08,-253 462.08,-253 467.42,-253 472.75,-258.33 472.75,-263.67 472.75,-263.67 472.75,-274.33 472.75,-274.33 472.75,-279.67 467.42,-285 462.08,-285 462.08,-285 387.92,-285 387.92,-285 382.58,-285 377.25,-279.67 377.25,-274.33 377.25,-274.33 377.25,-263.67 377.25,-263.67 377.25,-258.33 382.58,-253 387.92,-253"/>
<text text-anchor="start" x="382.25" y="-263.2" font-family="Helvetica,sans-Serif" font-size="14.00">Value.__init__</text>
<path fill="none" stroke="black" d="M387.92,-253C387.92,-253 462.08,-253 462.08,-253 467.42,-253 472.75,-258.33 472.75,-263.67 472.75,-263.67 472.75,-274.33 472.75,-274.33 472.75,-279.67 467.42,-285 462.08,-285 462.08,-285 387.92,-285 387.92,-285 382.58,-285 377.25,-279.67 377.25,-274.33 377.25,-274.33 377.25,-263.67 377.25,-263.67 377.25,-258.33 382.58,-253 387.92,-253"/>
</g>
<!-- NDArray.__getitem___11868447927124751835 -->
<g id="node13" class="node">
<title>NDArray.__getitem___11868447927124751835</title>
<path fill="white" stroke="none" d="M245.17,-253C245.17,-253 362.83,-253 362.83,-253 368.17,-253 373.5,-258.33 373.5,-263.67 373.5,-263.67 373.5,-274.33 373.5,-274.33 373.5,-279.67 368.17,-285 362.83,-285 362.83,-285 245.17,-285 245.17,-285 239.83,-285 234.5,-279.67 234.5,-274.33 234.5,-274.33 234.5,-263.67 234.5,-263.67 234.5,-258.33 239.83,-253 245.17,-253"/>
<text text-anchor="start" x="239.12" y="-263.2" font-family="Helvetica,sans-Serif" font-size="14.00">NDArray.__getitem__</text>
<path fill="none" stroke="black" d="M245.17,-253C245.17,-253 362.83,-253 362.83,-253 368.17,-253 373.5,-258.33 373.5,-263.67 373.5,-263.67 373.5,-274.33 373.5,-274.33 373.5,-279.67 368.17,-285 362.83,-285 362.83,-285 245.17,-285 245.17,-285 239.83,-285 234.5,-279.67 234.5,-274.33 234.5,-274.33 234.5,-263.67 234.5,-263.67 234.5,-258.33 239.83,-253 245.17,-253"/>
</g>
<!-- Values.__getitem___520482313101349337 -->
<g id="node14" class="node">
<title>Values.__getitem___520482313101349337</title>
<path fill="white" stroke="none" d="M487.67,-253C487.67,-253 596.33,-253 596.33,-253 601.67,-253 607,-258.33 607,-263.67 607,-263.67 607,-274.33 607,-274.33 607,-279.67 601.67,-285 596.33,-285 596.33,-285 487.67,-285 487.67,-285 482.33,-285 477,-279.67 477,-274.33 477,-274.33 477,-263.67 477,-263.67 477,-258.33 482.33,-253 487.67,-253"/>
<text text-anchor="start" x="482" y="-263.2" font-family="Helvetica,sans-Serif" font-size="14.00">Values.__getitem__</text>
<path fill="none" stroke="black" d="M487.67,-253C487.67,-253 596.33,-253 596.33,-253 601.67,-253 607,-258.33 607,-263.67 607,-263.67 607,-274.33 607,-274.33 607,-279.67 601.67,-285 596.33,-285 596.33,-285 487.67,-285 487.67,-285 482.33,-285 477,-279.67 477,-274.33 477,-274.33 477,-263.67 477,-263.67 477,-258.33 482.33,-253 487.67,-253"/>
</g>
<!-- Value.__init___0 -->
<g id="node15" class="node">
<title>Value.__init___0</title>
<path fill="white" stroke="none" d="M470.92,-174C470.92,-174 545.08,-174 545.08,-174 550.42,-174 555.75,-179.33 555.75,-184.67 555.75,-184.67 555.75,-195.33 555.75,-195.33 555.75,-200.67 550.42,-206 545.08,-206 545.08,-206 470.92,-206 470.92,-206 465.58,-206 460.25,-200.67 460.25,-195.33 460.25,-195.33 460.25,-184.67 460.25,-184.67 460.25,-179.33 465.58,-174 470.92,-174"/>
<text text-anchor="start" x="465.25" y="-184.2" font-family="Helvetica,sans-Serif" font-size="14.00">Value.__init__</text>
<path fill="none" stroke="black" d="M470.92,-174C470.92,-174 545.08,-174 545.08,-174 550.42,-174 555.75,-179.33 555.75,-184.67 555.75,-184.67 555.75,-195.33 555.75,-195.33 555.75,-200.67 550.42,-206 545.08,-206 545.08,-206 470.92,-206 470.92,-206 465.58,-206 460.25,-200.67 460.25,-195.33 460.25,-195.33 460.25,-184.67 460.25,-184.67 460.25,-179.33 465.58,-174 470.92,-174"/>
</g>
</g>
</svg>
