<?xml version="1.0" encoding="UTF-8" standalone="no"?>
<!DOCTYPE svg PUBLIC "-//W3C//DTD SVG 1.1//EN"
 "http://www.w3.org/Graphics/SVG/1.1/DTD/svg11.dtd">
<!-- Generated by graphviz version 8.0.5 (20230430.1635)
 -->
<!-- Pages: 1 -->
<svg width="871pt" height="309pt"
 viewBox="0.00 0.00 871.00 309.00" xmlns="http://www.w3.org/2000/svg" xmlns:xlink="http://www.w3.org/1999/xlink">
<g id="graph0" class="graph" transform="scale(1 1) rotate(0) translate(4 305)">
<polygon fill="white" stroke="none" points="-4,4 -4,-305 867,-305 867,4 -4,4"/>
<g id="clust19" class="cluster">
<title>outer_cluster_3</title>
</g>
<g id="clust20" class="cluster">
<title>cluster_3</title>
<path fill="#fdb462" stroke="black" stroke-dasharray="5,2" d="M681,-90C681,-90 765,-90 765,-90 771,-90 777,-96 777,-102 777,-102 777,-120 777,-120 777,-126 771,-132 765,-132 765,-132 681,-132 681,-132 675,-132 669,-126 669,-120 669,-120 669,-102 669,-102 669,-96 675,-90 681,-90"/>
</g>
<g id="clust22" class="cluster">
<title>outer_cluster_2</title>
</g>
<g id="clust23" class="cluster">
<title>cluster_2</title>
<path fill="#80b1d3" stroke="black" stroke-dasharray="5,2" d="M249,-169C249,-169 367,-169 367,-169 373,-169 379,-175 379,-181 379,-181 379,-199 379,-199 379,-205 373,-211 367,-211 367,-211 249,-211 249,-211 243,-211 237,-205 237,-199 237,-199 237,-181 237,-181 237,-175 243,-169 249,-169"/>
</g>
<g id="clust25" class="cluster">
<title>outer_cluster_1</title>
</g>
<g id="clust26" class="cluster">
<title>cluster_1</title>
<path fill="#80b1d3" stroke="black" stroke-dasharray="5,2" d="M325,-90C325,-90 443,-90 443,-90 449,-90 455,-96 455,-102 455,-102 455,-120 455,-120 455,-126 449,-132 443,-132 443,-132 325,-132 325,-132 319,-132 313,-126 313,-120 313,-120 313,-102 313,-102 313,-96 319,-90 325,-90"/>
</g>
<g id="clust28" class="cluster">
<title>outer_cluster_4</title>
</g>
<g id="clust29" class="cluster">
<title>cluster_4</title>
<path fill="#8dd3c7" stroke="black" stroke-dasharray="5,2" d="M546,-248C546,-248 840,-248 840,-248 846,-248 852,-254 852,-260 852,-260 852,-278 852,-278 852,-284 846,-290 840,-290 840,-290 546,-290 546,-290 540,-290 534,-284 534,-278 534,-278 534,-260 534,-260 534,-254 540,-248 546,-248"/>
</g>
<g id="clust31" class="cluster">
<title>outer_cluster_6</title>
</g>
<g id="clust32" class="cluster">
<title>cluster_6</title>
<path fill="#8dd3c7" stroke="black" stroke-dasharray="5,2" d="M402,-169C402,-169 726,-169 726,-169 732,-169 738,-175 738,-181 738,-181 738,-199 738,-199 738,-205 732,-211 726,-211 726,-211 402,-211 402,-211 396,-211 390,-205 390,-199 390,-199 390,-181 390,-181 390,-175 396,-169 402,-169"/>
</g>
<g id="clust34" class="cluster">
<title>outer_cluster_9</title>
</g>
<g id="clust35" class="cluster">
<title>cluster_9</title>
<path fill="#8dd3c7" stroke="black" stroke-dasharray="5,2" d="M539,-90C539,-90 617,-90 617,-90 623,-90 629,-96 629,-102 629,-102 629,-120 629,-120 629,-126 623,-132 617,-132 617,-132 539,-132 539,-132 533,-132 527,-126 527,-120 527,-120 527,-102 527,-102 527,-96 533,-90 539,-90"/>
</g>
<g id="clust1" class="cluster">
<title>outer_cluster_py_ndarray_12463696466920899969_0</title>
</g>
<g id="clust2" class="cluster">
<title>cluster_py_ndarray_12463696466920899969_0</title>
<path fill="#fb8072" stroke="black" stroke-dasharray="1,5" d="M315,-11C315,-11 395,-11 395,-11 401,-11 407,-17 407,-23 407,-23 407,-41 407,-41 407,-47 401,-53 395,-53 395,-53 315,-53 315,-53 309,-53 303,-47 303,-41 303,-41 303,-23 303,-23 303,-17 309,-11 315,-11"/>
</g>
<g id="clust4" class="cluster">
<title>outer_cluster_py_value_8004441328793213481_0</title>
</g>
<g id="clust5" class="cluster">
<title>cluster_py_value_8004441328793213481_0</title>
<path fill="#fb8072" stroke="black" stroke-dasharray="1,5" d="M473,-90C473,-90 509,-90 509,-90 515,-90 521,-96 521,-102 521,-102 521,-120 521,-120 521,-126 515,-132 509,-132 509,-132 473,-132 473,-132 467,-132 461,-126 461,-120 461,-120 461,-102 461,-102 461,-96 467,-90 473,-90"/>
</g>
<g id="clust7" class="cluster">
<title>outer_cluster_py_ndarray_2781105897590886682_0</title>
</g>
<g id="clust8" class="cluster">
<title>cluster_py_ndarray_2781105897590886682_0</title>
<path fill="#fb8072" stroke="black" stroke-dasharray="1,5" d="M23,-90C23,-90 295,-90 295,-90 301,-90 307,-96 307,-102 307,-102 307,-120 307,-120 307,-126 301,-132 295,-132 295,-132 23,-132 23,-132 17,-132 11,-126 11,-120 11,-120 11,-102 11,-102 11,-96 17,-90 23,-90"/>
</g>
<g id="clust10" class="cluster">
<title>outer_cluster_py_value_5338970148915291456_0</title>
</g>
<g id="clust11" class="cluster">
<title>cluster_py_value_5338970148915291456_0</title>
<path fill="#fb8072" stroke="black" stroke-dasharray="1,5" d="M756,-169C756,-169 792,-169 792,-169 798,-169 804,-175 804,-181 804,-181 804,-199 804,-199 804,-205 798,-211 792,-211 792,-211 756,-211 756,-211 750,-211 744,-205 744,-199 744,-199 744,-181 744,-181 744,-175 750,-169 756,-169"/>
</g>
<g id="clust16" class="cluster">
<title>outer_cluster_Values.__init___5871781006564002453_0</title>
</g>
<g id="clust17" class="cluster">
<title>cluster_Values.__init___5871781006564002453_0</title>
<path fill="#bebada" stroke="black" stroke-dasharray="1,5" d="M662,-11C662,-11 720,-11 720,-11 726,-11 732,-17 732,-23 732,-23 732,-41 732,-41 732,-47 726,-53 720,-53 720,-53 662,-53 662,-53 656,-53 650,-47 650,-41 650,-41 650,-23 650,-23 650,-17 656,-11 662,-11"/>
</g>
<g id="clust13" class="cluster">
<title>outer_cluster_Value.__init___0_0</title>
</g>
<g id="clust14" class="cluster">
<title>cluster_Value.__init___0_0</title>
<path fill="#ffffb3" stroke="black" stroke-dasharray="1,5" d="M560,-11C560,-11 596,-11 596,-11 602,-11 608,-17 608,-23 608,-23 608,-41 608,-41 608,-47 602,-53 596,-53 596,-53 560,-53 560,-53 554,-53 548,-47 548,-41 548,-41 548,-23 548,-23 548,-17 554,-11 560,-11"/>
</g>
<!-- Values.__init___5871781006564002453_0&#45;&gt;NDArray.__getitem___13531250035159840349 -->
<g id="edge10" class="edge">
<title>Values.__init___5871781006564002453_0:s&#45;&gt;NDArray.__getitem___13531250035159840349</title>
<path fill="none" stroke="black" d="M691,-16C691,7.99 757.04,0.64 728.62,-50 713.18,-77.53 683.85,-59.7 668,-87 653.93,-111.23 656.1,-144.44 659.81,-166.3"/>
<polygon fill="black" stroke="black" points="657.41,-164 660.89,-168 660.66,-162.71 657.41,-164"/>
</g>
<!-- Values.__init___5871781006564002453&#45;&gt;Values.__init___5871781006564002453_0 -->
<g id="edge11" class="edge">
<title>Values.__init___5871781006564002453:s&#45;&gt;Values.__init___5871781006564002453_0</title>
<path fill="none" stroke="black" d="M723,-95C723,-80.48 715.98,-65.96 708.52,-54.63"/>
<polygon fill="black" stroke="black" points="711.7,-56.98 707.32,-54 708.88,-59.06 711.7,-56.98"/>
</g>
<!-- cross_6828067974578293639&#45;&gt;py_ndarray_12463696466920899969 -->
<g id="edge2" class="edge">
<title>cross_6828067974578293639:s&#45;&gt;py_ndarray_12463696466920899969</title>
<path fill="none" stroke="black" d="M359,-174C359,-160.96 358.11,-146.4 357.17,-134.67"/>
<polygon fill="black" stroke="black" points="359.3,-137.6 356.67,-133 355.86,-138.23 359.3,-137.6"/>
</g>
<!-- cross_6828067974578293639&#45;&gt;arange_16783941965674463102 -->
<g id="edge1" class="edge">
<title>cross_6828067974578293639:s&#45;&gt;arange_16783941965674463102</title>
<path fill="none" stroke="black" d="M339,-174C339,-144.03 369.74,-152.6 394,-135 395.19,-134.14 396.4,-133.26 397.62,-132.37"/>
<polygon fill="black" stroke="black" points="393.65,-135.79 397.35,-132 392.1,-132.65 393.65,-135.79"/>
</g>
<!-- py_ndarray_2781105897590886682&#45;&gt;py_ndarray_2781105897590886682_0 -->
<g id="edge6" class="edge">
<title>py_ndarray_2781105897590886682:s&#45;&gt;py_ndarray_2781105897590886682_0</title>
<path fill="none" stroke="black" d="M279,-174C279,-156.51 268.81,-143.94 254.37,-134.92"/>
<polygon fill="black" stroke="black" points="255.52,-132.99 250.31,-132 253.76,-136.02 255.52,-132.99"/>
</g>
<!-- py_ndarray_12463696466920899969&#45;&gt;py_ndarray_12463696466920899969_0 -->
<g id="edge5" class="edge">
<title>py_ndarray_12463696466920899969:s&#45;&gt;py_ndarray_12463696466920899969_0</title>
<path fill="none" stroke="black" d="M355,-95C355,-81.98 355,-67.43 355,-55.7"/>
<polygon fill="black" stroke="black" points="356.75,-59 355,-54 353.25,-59 356.75,-59"/>
</g>
<!-- arange_16783941965674463102&#45;&gt;py_value_8004441328793213481 -->
<g id="edge12" class="edge">
<title>arange_16783941965674463102:s&#45;&gt;py_value_8004441328793213481</title>
<path fill="none" stroke="black" d="M425,-95C425,-82.99 443.67,-87.35 452,-96 470.58,-115.28 455.6,-146.55 441.62,-167.45"/>
<polygon fill="black" stroke="black" points="442.21,-163.06 440.29,-168 444.87,-165.33 442.21,-163.06"/>
</g>
<!-- py_value_5338970148915291456&#45;&gt;py_value_5338970148915291456_0 -->
<g id="edge9" class="edge">
<title>py_value_5338970148915291456:s&#45;&gt;py_value_5338970148915291456_0</title>
<path fill="none" stroke="black" d="M673,-253C673,-218.93 710.09,-232.03 739,-214 740.54,-213.04 742.12,-212.04 743.7,-211.04"/>
<polygon fill="black" stroke="black" points="744.34,-216.26 744,-210.97 740.97,-215.32 744.34,-216.26"/>
</g>
<!-- NDArray.__getitem___1081172882011038115&#45;&gt;Values.__init___5871781006564002453 -->
<g id="edge14" class="edge">
<title>NDArray.__getitem___1081172882011038115:s&#45;&gt;Values.__init___5871781006564002453</title>
<path fill="none" stroke="black" d="M813,-253C813,-214.17 824.97,-199.3 805,-166 797.43,-153.38 785.64,-143.13 773.34,-135.08"/>
<polygon fill="black" stroke="black" points="774.59,-133.17 769.42,-132 772.72,-136.14 774.59,-133.17"/>
</g>
<!-- NDArray.__getitem___1081172882011038115&#45;&gt;py_ndarray_2781105897590886682 -->
<g id="edge13" class="edge">
<title>NDArray.__getitem___1081172882011038115:s&#45;&gt;py_ndarray_2781105897590886682</title>
<path fill="none" stroke="black" d="M744,-253C744,-205.91 367.18,-227.28 322,-214 321.03,-213.72 320.06,-213.41 319.09,-213.08"/>
<polygon fill="black" stroke="black" points="319.84,-211.12 314.55,-211 318.61,-214.39 319.84,-211.12"/>
</g>
<!-- Value.__mul___14883133402278733943&#45;&gt;Values.__getitem___17106626079223511235 -->
<g id="edge17" class="edge">
<title>Value.__mul___14883133402278733943:s&#45;&gt;Values.__getitem___17106626079223511235</title>
<path fill="none" stroke="black" d="M562,-253C562,-238.19 554.22,-223.75 545.9,-212.54"/>
<polygon fill="black" stroke="black" points="550.12,-214.23 545.31,-212 547.68,-216.74 550.12,-214.23"/>
</g>
<!-- Value.__mul___14883133402278733943&#45;&gt;NDArray.__getitem___13531250035159840349 -->
<g id="edge18" class="edge">
<title>Value.__mul___14883133402278733943:s&#45;&gt;NDArray.__getitem___13531250035159840349</title>
<path fill="none" stroke="black" d="M612,-253C612,-236.6 622.84,-222.36 634.72,-211.67"/>
<polygon fill="black" stroke="black" points="631.36,-214.73 635.12,-211 629.85,-211.57 631.36,-214.73"/>
</g>
<!-- Values.__getitem___17106626079223511235&#45;&gt;Values.__init___5871781006564002453 -->
<g id="edge3" class="edge">
<title>Values.__getitem___17106626079223511235:s&#45;&gt;Values.__init___5871781006564002453</title>
<path fill="none" stroke="black" d="M494,-174C494,-169.55 598.45,-142.83 666.26,-125.95"/>
<polygon fill="black" stroke="black" points="664.35,-128.39 668,-124.55 662.75,-125.27 664.35,-128.39"/>
</g>
<!-- Values.__getitem___17106626079223511235&#45;&gt;Value.__init___0 -->
<g id="edge4" class="edge">
<title>Values.__getitem___17106626079223511235:s&#45;&gt;Value.__init___0</title>
<path fill="none" stroke="black" d="M558,-174C558,-160.39 562.42,-145.88 567.1,-134.32"/>
<polygon fill="black" stroke="black" points="567.48,-138.22 568.4,-133 564.43,-136.5 567.48,-138.22"/>
</g>
<!-- py_value_8004441328793213481&#45;&gt;py_value_8004441328793213481_0 -->
<g id="edge8" class="edge">
<title>py_value_8004441328793213481:s&#45;&gt;py_value_8004441328793213481_0</title>
<path fill="none" stroke="black" d="M425,-174C425,-163.06 444.51,-145.68 462.32,-132.11"/>
<polygon fill="black" stroke="black" points="457.31,-134.81 461.8,-132 456.54,-131.39 457.31,-134.81"/>
</g>
<!-- NDArray.__getitem___13531250035159840349&#45;&gt;Values.__init___5871781006564002453 -->
<g id="edge16" class="edge">
<title>NDArray.__getitem___13531250035159840349:s&#45;&gt;Values.__init___5871781006564002453</title>
<path fill="none" stroke="black" d="M699,-174C699,-160.09 704.32,-145.53 709.95,-134.02"/>
<polygon fill="black" stroke="black" points="709.82,-138.01 711.54,-133 707.07,-135.85 709.82,-138.01"/>
</g>
<!-- NDArray.__getitem___13531250035159840349&#45;&gt;arange_16783941965674463102 -->
<g id="edge15" class="edge">
<title>NDArray.__getitem___13531250035159840349:s&#45;&gt;arange_16783941965674463102</title>
<path fill="none" stroke="black" d="M630,-174C630,-96.48 531.29,-165.43 460,-135 459.61,-134.83 459.22,-134.66 458.82,-134.49"/>
<polygon fill="black" stroke="black" points="460,-132.62 454.74,-132 458.46,-135.77 460,-132.62"/>
</g>
<!-- Value.__init___0&#45;&gt;Value.__init___0_0 -->
<g id="edge7" class="edge">
<title>Value.__init___0:s&#45;&gt;Value.__init___0_0</title>
<path fill="none" stroke="black" d="M578,-95C578,-81.98 578,-67.43 578,-55.7"/>
<polygon fill="black" stroke="black" points="579.75,-59 578,-54 576.25,-59 579.75,-59"/>
</g>
<!-- py_ndarray_12463696466920899969_0 -->
<g id="node1" class="node">
<title>py_ndarray_12463696466920899969_0</title>
<path fill="white" stroke="none" d="M317.17,-16C317.17,-16 392.83,-16 392.83,-16 398.17,-16 403.5,-21.33 403.5,-26.67 403.5,-26.67 403.5,-37.33 403.5,-37.33 403.5,-42.67 398.17,-48 392.83,-48 392.83,-48 317.17,-48 317.17,-48 311.83,-48 306.5,-42.67 306.5,-37.33 306.5,-37.33 306.5,-26.67 306.5,-26.67 306.5,-21.33 311.83,-16 317.17,-16"/>
<text text-anchor="start" x="311.5" y="-26.2" font-family="Helvetica,sans-Serif" font-size="14.00">&quot;np.arange(x)&quot;</text>
<path fill="none" stroke="black" d="M317.17,-16C317.17,-16 392.83,-16 392.83,-16 398.17,-16 403.5,-21.33 403.5,-26.67 403.5,-26.67 403.5,-37.33 403.5,-37.33 403.5,-42.67 398.17,-48 392.83,-48 392.83,-48 317.17,-48 317.17,-48 311.83,-48 306.5,-42.67 306.5,-37.33 306.5,-37.33 306.5,-26.67 306.5,-26.67 306.5,-21.33 311.83,-16 317.17,-16"/>
</g>
<!-- py_value_8004441328793213481_0 -->
<g id="node2" class="node">
<title>py_value_8004441328793213481_0</title>
<path fill="white" stroke="none" d="M485.67,-95C485.67,-95 496.33,-95 496.33,-95 501.67,-95 507,-100.33 507,-105.67 507,-105.67 507,-116.33 507,-116.33 507,-121.67 501.67,-127 496.33,-127 496.33,-127 485.67,-127 485.67,-127 480.33,-127 475,-121.67 475,-116.33 475,-116.33 475,-105.67 475,-105.67 475,-100.33 480.33,-95 485.67,-95"/>
<text text-anchor="start" x="482.38" y="-105.2" font-family="Helvetica,sans-Serif" font-size="14.00">&quot;x&quot;</text>
<path fill="none" stroke="black" d="M485.67,-95C485.67,-95 496.33,-95 496.33,-95 501.67,-95 507,-100.33 507,-105.67 507,-105.67 507,-116.33 507,-116.33 507,-121.67 501.67,-127 496.33,-127 496.33,-127 485.67,-127 485.67,-127 480.33,-127 475,-121.67 475,-116.33 475,-116.33 475,-105.67 475,-105.67 475,-100.33 480.33,-95 485.67,-95"/>
</g>
<!-- py_ndarray_2781105897590886682_0 -->
<g id="node3" class="node">
<title>py_ndarray_2781105897590886682_0</title>
<path fill="white" stroke="none" d="M25.17,-95C25.17,-95 292.83,-95 292.83,-95 298.17,-95 303.5,-100.33 303.5,-105.67 303.5,-105.67 303.5,-116.33 303.5,-116.33 303.5,-121.67 298.17,-127 292.83,-127 292.83,-127 25.17,-127 25.17,-127 19.83,-127 14.5,-121.67 14.5,-116.33 14.5,-116.33 14.5,-105.67 14.5,-105.67 14.5,-100.33 19.83,-95 25.17,-95"/>
<text text-anchor="start" x="19.5" y="-105.2" font-family="Helvetica,sans-Serif" font-size="14.00">&quot;np.multiply.outer(np.arange(x), np.arange(x))&quot;</text>
<path fill="none" stroke="black" d="M25.17,-95C25.17,-95 292.83,-95 292.83,-95 298.17,-95 303.5,-100.33 303.5,-105.67 303.5,-105.67 303.5,-116.33 303.5,-116.33 303.5,-121.67 298.17,-127 292.83,-127 292.83,-127 25.17,-127 25.17,-127 19.83,-127 14.5,-121.67 14.5,-116.33 14.5,-116.33 14.5,-105.67 14.5,-105.67 14.5,-100.33 19.83,-95 25.17,-95"/>
</g>
<!-- py_value_5338970148915291456_0 -->
<g id="node4" class="node">
<title>py_value_5338970148915291456_0</title>
<path fill="white" stroke="none" d="M761.29,-174C761.29,-174 786.71,-174 786.71,-174 792.04,-174 797.38,-179.33 797.38,-184.67 797.38,-184.67 797.38,-195.33 797.38,-195.33 797.38,-200.67 792.04,-206 786.71,-206 786.71,-206 761.29,-206 761.29,-206 755.96,-206 750.62,-200.67 750.62,-195.33 750.62,-195.33 750.62,-184.67 750.62,-184.67 750.62,-179.33 755.96,-174 761.29,-174"/>
<text text-anchor="start" x="755.62" y="-184.2" font-family="Helvetica,sans-Serif" font-size="14.00">&quot;x * x&quot;</text>
<path fill="none" stroke="black" d="M761.29,-174C761.29,-174 786.71,-174 786.71,-174 792.04,-174 797.38,-179.33 797.38,-184.67 797.38,-184.67 797.38,-195.33 797.38,-195.33 797.38,-200.67 792.04,-206 786.71,-206 786.71,-206 761.29,-206 761.29,-206 755.96,-206 750.62,-200.67 750.62,-195.33 750.62,-195.33 750.62,-184.67 750.62,-184.67 750.62,-179.33 755.96,-174 761.29,-174"/>
</g>
<!-- Value.__init___0_0 -->
<g id="node5" class="node">
<title>Value.__init___0_0</title>
<path fill="white" stroke="none" d="M572.67,-16C572.67,-16 583.33,-16 583.33,-16 588.67,-16 594,-21.33 594,-26.67 594,-26.67 594,-37.33 594,-37.33 594,-42.67 588.67,-48 583.33,-48 583.33,-48 572.67,-48 572.67,-48 567.33,-48 562,-42.67 562,-37.33 562,-37.33 562,-26.67 562,-26.67 562,-21.33 567.33,-16 572.67,-16"/>
<text text-anchor="start" x="574.25" y="-26.2" font-family="Helvetica,sans-Serif" font-size="14.00">0</text>
<path fill="none" stroke="black" d="M572.67,-16C572.67,-16 583.33,-16 583.33,-16 588.67,-16 594,-21.33 594,-26.67 594,-26.67 594,-37.33 594,-37.33 594,-42.67 588.67,-48 583.33,-48 583.33,-48 572.67,-48 572.67,-48 567.33,-48 562,-42.67 562,-37.33 562,-37.33 562,-26.67 562,-26.67 562,-21.33 567.33,-16 572.67,-16"/>
</g>
<!-- Values.__init___5871781006564002453_0 -->
<g id="node6" class="node">
<title>Values.__init___5871781006564002453_0</title>
<path fill="white" stroke="none" d="M664.04,-16C664.04,-16 717.96,-16 717.96,-16 723.29,-16 728.62,-21.33 728.62,-26.67 728.62,-26.67 728.62,-37.33 728.62,-37.33 728.62,-42.67 723.29,-48 717.96,-48 717.96,-48 664.04,-48 664.04,-48 658.71,-48 653.38,-42.67 653.38,-37.33 653.38,-37.33 653.38,-26.67 653.38,-26.67 653.38,-21.33 658.71,-16 664.04,-16"/>
<text text-anchor="start" x="658.38" y="-26.2" font-family="Helvetica,sans-Serif" font-size="14.00">Vec[Value]</text>
<path fill="none" stroke="black" d="M664.04,-16C664.04,-16 717.96,-16 717.96,-16 723.29,-16 728.62,-21.33 728.62,-26.67 728.62,-26.67 728.62,-37.33 728.62,-37.33 728.62,-42.67 723.29,-48 717.96,-48 717.96,-48 664.04,-48 664.04,-48 658.71,-48 653.38,-42.67 653.38,-37.33 653.38,-37.33 653.38,-26.67 653.38,-26.67 653.38,-21.33 658.71,-16 664.04,-16"/>
</g>
<!-- Values.__init___5871781006564002453 -->
<g id="node7" class="node">
<title>Values.__init___5871781006564002453</title>
<path fill="white" stroke="none" d="M682.54,-95C682.54,-95 763.46,-95 763.46,-95 768.79,-95 774.12,-100.33 774.12,-105.67 774.12,-105.67 774.12,-116.33 774.12,-116.33 774.12,-121.67 768.79,-127 763.46,-127 763.46,-127 682.54,-127 682.54,-127 677.21,-127 671.88,-121.67 671.88,-116.33 671.88,-116.33 671.88,-105.67 671.88,-105.67 671.88,-100.33 677.21,-95 682.54,-95"/>
<text text-anchor="start" x="676.88" y="-105.2" font-family="Helvetica,sans-Serif" font-size="14.00">Values.__init__</text>
<path fill="none" stroke="black" d="M682.54,-95C682.54,-95 763.46,-95 763.46,-95 768.79,-95 774.12,-100.33 774.12,-105.67 774.12,-105.67 774.12,-116.33 774.12,-116.33 774.12,-121.67 768.79,-127 763.46,-127 763.46,-127 682.54,-127 682.54,-127 677.21,-127 671.88,-121.67 671.88,-116.33 671.88,-116.33 671.88,-105.67 671.88,-105.67 671.88,-100.33 677.21,-95 682.54,-95"/>
</g>
<!-- cross_6828067974578293639 -->
<g id="node8" class="node">
<title>cross_6828067974578293639</title>
<path fill="white" stroke="none" d="M338.67,-174C338.67,-174 359.33,-174 359.33,-174 364.67,-174 370,-179.33 370,-184.67 370,-184.67 370,-195.33 370,-195.33 370,-200.67 364.67,-206 359.33,-206 359.33,-206 338.67,-206 338.67,-206 333.33,-206 328,-200.67 328,-195.33 328,-195.33 328,-184.67 328,-184.67 328,-179.33 333.33,-174 338.67,-174"/>
<text text-anchor="start" x="332.88" y="-184.2" font-family="Helvetica,sans-Serif" font-size="14.00">cross</text>
<path fill="none" stroke="black" d="M338.67,-174C338.67,-174 359.33,-174 359.33,-174 364.67,-174 370,-179.33 370,-184.67 370,-184.67 370,-195.33 370,-195.33 370,-200.67 364.67,-206 359.33,-206 359.33,-206 338.67,-206 338.67,-206 333.33,-206 328,-200.67 328,-195.33 328,-195.33 328,-184.67 328,-184.67 328,-179.33 333.33,-174 338.67,-174"/>
</g>
<!-- py_ndarray_2781105897590886682 -->
<g id="node9" class="node">
<title>py_ndarray_2781105897590886682</title>
<path fill="white" stroke="none" d="M250.92,-174C250.92,-174 307.08,-174 307.08,-174 312.42,-174 317.75,-179.33 317.75,-184.67 317.75,-184.67 317.75,-195.33 317.75,-195.33 317.75,-200.67 312.42,-206 307.08,-206 307.08,-206 250.92,-206 250.92,-206 245.58,-206 240.25,-200.67 240.25,-195.33 240.25,-195.33 240.25,-184.67 240.25,-184.67 240.25,-179.33 245.58,-174 250.92,-174"/>
<text text-anchor="start" x="245.25" y="-184.2" font-family="Helvetica,sans-Serif" font-size="14.00">py_ndarray</text>
<path fill="none" stroke="black" d="M250.92,-174C250.92,-174 307.08,-174 307.08,-174 312.42,-174 317.75,-179.33 317.75,-184.67 317.75,-184.67 317.75,-195.33 317.75,-195.33 317.75,-200.67 312.42,-206 307.08,-206 307.08,-206 250.92,-206 250.92,-206 245.58,-206 240.25,-200.67 240.25,-195.33 240.25,-195.33 240.25,-184.67 240.25,-184.67 240.25,-179.33 245.58,-174 250.92,-174"/>
</g>
<!-- py_ndarray_12463696466920899969 -->
<g id="node10" class="node">
<title>py_ndarray_12463696466920899969</title>
<path fill="white" stroke="none" d="M326.92,-95C326.92,-95 383.08,-95 383.08,-95 388.42,-95 393.75,-100.33 393.75,-105.67 393.75,-105.67 393.75,-116.33 393.75,-116.33 393.75,-121.67 388.42,-127 383.08,-127 383.08,-127 326.92,-127 326.92,-127 321.58,-127 316.25,-121.67 316.25,-116.33 316.25,-116.33 316.25,-105.67 316.25,-105.67 316.25,-100.33 321.58,-95 326.92,-95"/>
<text text-anchor="start" x="321.25" y="-105.2" font-family="Helvetica,sans-Serif" font-size="14.00">py_ndarray</text>
<path fill="none" stroke="black" d="M326.92,-95C326.92,-95 383.08,-95 383.08,-95 388.42,-95 393.75,-100.33 393.75,-105.67 393.75,-105.67 393.75,-116.33 393.75,-116.33 393.75,-121.67 388.42,-127 383.08,-127 383.08,-127 326.92,-127 326.92,-127 321.58,-127 316.25,-121.67 316.25,-116.33 316.25,-116.33 316.25,-105.67 316.25,-105.67 316.25,-100.33 321.58,-95 326.92,-95"/>
</g>
<!-- arange_16783941965674463102 -->
<g id="node11" class="node">
<title>arange_16783941965674463102</title>
<path fill="white" stroke="none" d="M409.67,-95C409.67,-95 440.33,-95 440.33,-95 445.67,-95 451,-100.33 451,-105.67 451,-105.67 451,-116.33 451,-116.33 451,-121.67 445.67,-127 440.33,-127 440.33,-127 409.67,-127 409.67,-127 404.33,-127 399,-121.67 399,-116.33 399,-116.33 399,-105.67 399,-105.67 399,-100.33 404.33,-95 409.67,-95"/>
<text text-anchor="start" x="404" y="-105.2" font-family="Helvetica,sans-Serif" font-size="14.00">arange</text>
<path fill="none" stroke="black" d="M409.67,-95C409.67,-95 440.33,-95 440.33,-95 445.67,-95 451,-100.33 451,-105.67 451,-105.67 451,-116.33 451,-116.33 451,-121.67 445.67,-127 440.33,-127 440.33,-127 409.67,-127 409.67,-127 404.33,-127 399,-121.67 399,-116.33 399,-116.33 399,-105.67 399,-105.67 399,-100.33 404.33,-95 409.67,-95"/>
</g>
<!-- py_value_5338970148915291456 -->
<g id="node12" class="node">
<title>py_value_5338970148915291456</title>
<path fill="white" stroke="none" d="M651.67,-253C651.67,-253 694.33,-253 694.33,-253 699.67,-253 705,-258.33 705,-263.67 705,-263.67 705,-274.33 705,-274.33 705,-279.67 699.67,-285 694.33,-285 694.33,-285 651.67,-285 651.67,-285 646.33,-285 641,-279.67 641,-274.33 641,-274.33 641,-263.67 641,-263.67 641,-258.33 646.33,-253 651.67,-253"/>
<text text-anchor="start" x="646" y="-263.2" font-family="Helvetica,sans-Serif" font-size="14.00">py_value</text>
<path fill="none" stroke="black" d="M651.67,-253C651.67,-253 694.33,-253 694.33,-253 699.67,-253 705,-258.33 705,-263.67 705,-263.67 705,-274.33 705,-274.33 705,-279.67 699.67,-285 694.33,-285 694.33,-285 651.67,-285 651.67,-285 646.33,-285 641,-279.67 641,-274.33 641,-274.33 641,-263.67 641,-263.67 641,-258.33 646.33,-253 651.67,-253"/>
</g>
<!-- NDArray.__getitem___1081172882011038115 -->
<g id="node13" class="node">
<title>NDArray.__getitem___1081172882011038115</title>
<path fill="white" stroke="none" d="M720.17,-253C720.17,-253 837.83,-253 837.83,-253 843.17,-253 848.5,-258.33 848.5,-263.67 848.5,-263.67 848.5,-274.33 848.5,-274.33 848.5,-279.67 843.17,-285 837.83,-285 837.83,-285 720.17,-285 720.17,-285 714.83,-285 709.5,-279.67 709.5,-274.33 709.5,-274.33 709.5,-263.67 709.5,-263.67 709.5,-258.33 714.83,-253 720.17,-253"/>
<text text-anchor="start" x="714.12" y="-263.2" font-family="Helvetica,sans-Serif" font-size="14.00">NDArray.__getitem__</text>
<path fill="none" stroke="black" d="M720.17,-253C720.17,-253 837.83,-253 837.83,-253 843.17,-253 848.5,-258.33 848.5,-263.67 848.5,-263.67 848.5,-274.33 848.5,-274.33 848.5,-279.67 843.17,-285 837.83,-285 837.83,-285 720.17,-285 720.17,-285 714.83,-285 709.5,-279.67 709.5,-274.33 709.5,-274.33 709.5,-263.67 709.5,-263.67 709.5,-258.33 714.83,-253 720.17,-253"/>
</g>
<!-- Value.__mul___14883133402278733943 -->
<g id="node14" class="node">
<title>Value.__mul___14883133402278733943</title>
<path fill="white" stroke="none" d="M547.67,-253C547.67,-253 626.33,-253 626.33,-253 631.67,-253 637,-258.33 637,-263.67 637,-263.67 637,-274.33 637,-274.33 637,-279.67 631.67,-285 626.33,-285 626.33,-285 547.67,-285 547.67,-285 542.33,-285 537,-279.67 537,-274.33 537,-274.33 537,-263.67 537,-263.67 537,-258.33 542.33,-253 547.67,-253"/>
<text text-anchor="start" x="541.62" y="-263.2" font-family="Helvetica,sans-Serif" font-size="14.00">Value.__mul__</text>
<path fill="none" stroke="black" d="M547.67,-253C547.67,-253 626.33,-253 626.33,-253 631.67,-253 637,-258.33 637,-263.67 637,-263.67 637,-274.33 637,-274.33 637,-279.67 631.67,-285 626.33,-285 626.33,-285 547.67,-285 547.67,-285 542.33,-285 537,-279.67 537,-274.33 537,-274.33 537,-263.67 537,-263.67 537,-258.33 542.33,-253 547.67,-253"/>
</g>
<!-- Values.__getitem___17106626079223511235 -->
<g id="node15" class="node">
<title>Values.__getitem___17106626079223511235</title>
<path fill="white" stroke="none" d="M471.67,-174C471.67,-174 580.33,-174 580.33,-174 585.67,-174 591,-179.33 591,-184.67 591,-184.67 591,-195.33 591,-195.33 591,-200.67 585.67,-206 580.33,-206 580.33,-206 471.67,-206 471.67,-206 466.33,-206 461,-200.67 461,-195.33 461,-195.33 461,-184.67 461,-184.67 461,-179.33 466.33,-174 471.67,-174"/>
<text text-anchor="start" x="466" y="-184.2" font-family="Helvetica,sans-Serif" font-size="14.00">Values.__getitem__</text>
<path fill="none" stroke="black" d="M471.67,-174C471.67,-174 580.33,-174 580.33,-174 585.67,-174 591,-179.33 591,-184.67 591,-184.67 591,-195.33 591,-195.33 591,-200.67 585.67,-206 580.33,-206 580.33,-206 471.67,-206 471.67,-206 466.33,-206 461,-200.67 461,-195.33 461,-195.33 461,-184.67 461,-184.67 461,-179.33 466.33,-174 471.67,-174"/>
</g>
<!-- py_value_8004441328793213481 -->
<g id="node16" class="node">
<title>py_value_8004441328793213481</title>
<path fill="white" stroke="none" d="M403.67,-174C403.67,-174 446.33,-174 446.33,-174 451.67,-174 457,-179.33 457,-184.67 457,-184.67 457,-195.33 457,-195.33 457,-200.67 451.67,-206 446.33,-206 446.33,-206 403.67,-206 403.67,-206 398.33,-206 393,-200.67 393,-195.33 393,-195.33 393,-184.67 393,-184.67 393,-179.33 398.33,-174 403.67,-174"/>
<text text-anchor="start" x="398" y="-184.2" font-family="Helvetica,sans-Serif" font-size="14.00">py_value</text>
<path fill="none" stroke="black" d="M403.67,-174C403.67,-174 446.33,-174 446.33,-174 451.67,-174 457,-179.33 457,-184.67 457,-184.67 457,-195.33 457,-195.33 457,-200.67 451.67,-206 446.33,-206 446.33,-206 403.67,-206 403.67,-206 398.33,-206 393,-200.67 393,-195.33 393,-195.33 393,-184.67 393,-184.67 393,-179.33 398.33,-174 403.67,-174"/>
</g>
<!-- NDArray.__getitem___13531250035159840349 -->
<g id="node17" class="node">
<title>NDArray.__getitem___13531250035159840349</title>
<path fill="white" stroke="none" d="M606.17,-174C606.17,-174 723.83,-174 723.83,-174 729.17,-174 734.5,-179.33 734.5,-184.67 734.5,-184.67 734.5,-195.33 734.5,-195.33 734.5,-200.67 729.17,-206 723.83,-206 723.83,-206 606.17,-206 606.17,-206 600.83,-206 595.5,-200.67 595.5,-195.33 595.5,-195.33 595.5,-184.67 595.5,-184.67 595.5,-179.33 600.83,-174 606.17,-174"/>
<text text-anchor="start" x="600.12" y="-184.2" font-family="Helvetica,sans-Serif" font-size="14.00">NDArray.__getitem__</text>
<path fill="none" stroke="black" d="M606.17,-174C606.17,-174 723.83,-174 723.83,-174 729.17,-174 734.5,-179.33 734.5,-184.67 734.5,-184.67 734.5,-195.33 734.5,-195.33 734.5,-200.67 729.17,-206 723.83,-206 723.83,-206 606.17,-206 606.17,-206 600.83,-206 595.5,-200.67 595.5,-195.33 595.5,-195.33 595.5,-184.67 595.5,-184.67 595.5,-179.33 600.83,-174 606.17,-174"/>
</g>
<!-- Value.__init___0 -->
<g id="node18" class="node">
<title>Value.__init___0</title>
<path fill="white" stroke="none" d="M540.92,-95C540.92,-95 615.08,-95 615.08,-95 620.42,-95 625.75,-100.33 625.75,-105.67 625.75,-105.67 625.75,-116.33 625.75,-116.33 625.75,-121.67 620.42,-127 615.08,-127 615.08,-127 540.92,-127 540.92,-127 535.58,-127 530.25,-121.67 530.25,-116.33 530.25,-116.33 530.25,-105.67 530.25,-105.67 530.25,-100.33 535.58,-95 540.92,-95"/>
<text text-anchor="start" x="535.25" y="-105.2" font-family="Helvetica,sans-Serif" font-size="14.00">Value.__init__</text>
<path fill="none" stroke="black" d="M540.92,-95C540.92,-95 615.08,-95 615.08,-95 620.42,-95 625.75,-100.33 625.75,-105.67 625.75,-105.67 625.75,-116.33 625.75,-116.33 625.75,-121.67 620.42,-127 615.08,-127 615.08,-127 540.92,-127 540.92,-127 535.58,-127 530.25,-121.67 530.25,-116.33 530.25,-116.33 530.25,-105.67 530.25,-105.67 530.25,-100.33 535.58,-95 540.92,-95"/>
</g>
</g>
</svg>
